<?xml version="1.0" standalone="no"?>
<!DOCTYPE svg PUBLIC "-//W3C//DTD SVG 20010904//EN"
 "http://www.w3.org/TR/2001/REC-SVG-20010904/DTD/svg10.dtd">
<svg version="1.0" xmlns="http://www.w3.org/2000/svg"
 width="200.000000pt" height="200.000000pt" viewBox="0 0 200.000000 200.000000"
 preserveAspectRatio="xMidYMid meet">
<metadata>
Created by potrace 1.16, written by Peter Selinger 2001-2019
</metadata>
<g transform="translate(0.000000,200.000000) scale(0.100000,-0.100000)"
fill="#000000" stroke="none">
<path d="M240 1214 c0 -11 59 -90 104 -138 l45 -48 -56 -72 c-31 -39 -61 -77
-66 -84 -7 -8 -4 -19 9 -33 42 -47 48 -44 118 45 l66 84 80 -48 c45 -27 86
-50 91 -52 6 -2 -4 -43 -25 -98 -20 -52 -36 -98 -36 -102 0 -10 70 -39 80 -33
4 2 22 46 40 97 18 51 34 95 36 96 1 2 37 -3 79 -12 43 -9 95 -16 116 -16 l39
0 0 -110 0 -110 45 0 45 0 0 110 0 110 38 0 c20 0 72 9 115 19 l79 19 17 -42
c10 -22 28 -67 41 -98 13 -32 30 -58 37 -58 13 0 73 27 73 33 0 2 -18 46 -40
97 -22 51 -40 96 -40 99 0 3 19 14 41 25 22 10 63 33 90 51 l49 33 65 -84 c37
-46 68 -84 71 -84 12 0 64 45 64 54 -1 6 -29 47 -64 91 l-63 79 69 85 c37 47
68 88 68 93 0 4 -27 8 -60 8 -33 0 -60 -4 -60 -9 0 -5 -32 -41 -71 -80 -299
-299 -761 -319 -1089 -47 -30 25 -71 65 -90 90 -34 44 -36 45 -92 46 -32 0
-58 -3 -58 -6z"/>
</g>
</svg>
