<?xml version="1.0" standalone="no"?>
<!DOCTYPE svg PUBLIC "-//W3C//DTD SVG 20010904//EN"
 "http://www.w3.org/TR/2001/REC-SVG-20010904/DTD/svg10.dtd">
<svg version="1.0" xmlns="http://www.w3.org/2000/svg"
 width="320.000000pt" height="320.000000pt" viewBox="0 0 320.000000 320.000000"
 preserveAspectRatio="xMidYMid meet">
<metadata>
Created by potrace 1.16, written by Peter Selinger 2001-2019
</metadata>
<g transform="translate(0.000000,320.000000) scale(0.100000,-0.100000)"
fill="#000000" stroke="none">
<path d="M1445 2476 c-135 -14 -252 -31 -295 -46 -14 -4 -52 -16 -85 -25 -89
-25 -166 -55 -315 -123 -35 -15 -240 -140 -250 -151 -3 -4 -23 -19 -45 -36
-76 -56 -212 -185 -292 -277 -50 -57 -153 -204 -153 -218 0 -14 79 -125 153
-215 219 -266 554 -487 892 -588 544 -162 1119 -76 1590 239 201 134 340 269
493 480 29 40 52 77 52 84 0 14 -103 161 -153 218 -222 255 -479 433 -787 550
-30 11 -82 28 -115 37 -33 9 -71 21 -85 25 -14 5 -68 15 -120 24 -87 14 -142
19 -300 30 -30 2 -113 -2 -185 -8z m350 -240 c184 -28 310 -61 412 -107 24
-10 46 -19 51 -19 4 0 25 -9 47 -21 109 -58 170 -92 175 -99 3 -4 25 -20 50
-35 25 -15 47 -31 50 -34 3 -3 23 -19 45 -36 51 -37 213 -198 249 -248 l28
-37 -38 -47 c-56 -68 -185 -194 -252 -244 -31 -24 -59 -46 -62 -49 -25 -27
-241 -146 -327 -181 -57 -23 -71 -28 -113 -42 -124 -40 -225 -61 -392 -78
-182 -20 -420 10 -628 78 -42 14 -56 19 -112 42 -87 35 -303 154 -328 181 -3
3 -31 25 -62 49 -67 50 -196 176 -252 244 l-38 47 28 37 c37 51 199 212 249
249 22 16 42 32 45 35 3 3 25 19 50 34 25 15 47 31 50 35 5 7 66 41 175 99 22
12 43 21 47 21 5 0 27 9 51 19 215 97 561 143 802 107z"/>
<path d="M1525 2044 c-16 -3 -61 -17 -100 -32 -57 -22 -83 -40 -140 -97 -58
-58 -76 -83 -100 -145 -25 -64 -29 -88 -29 -170 0 -82 4 -106 29 -170 24 -62
42 -87 100 -145 58 -58 83 -76 145 -100 64 -25 88 -29 170 -29 82 0 105 4 170
29 61 25 87 43 145 100 57 58 75 84 100 145 25 65 29 88 29 170 0 82 -4 105
-29 169 -24 61 -43 88 -100 146 -57 57 -83 76 -140 98 -70 27 -184 41 -250 31z"/>
</g>
</svg>
