<?xml version="1.0" standalone="no"?>
<!DOCTYPE svg PUBLIC "-//W3C//DTD SVG 20010904//EN"
 "http://www.w3.org/TR/2001/REC-SVG-20010904/DTD/svg10.dtd">
<svg version="1.0" xmlns="http://www.w3.org/2000/svg"
 width="300.000000pt" height="200.000000pt" viewBox="0 0 300.000000 200.000000"
 preserveAspectRatio="xMidYMid meet">
<metadata>
Created by potrace 1.10, written by Peter Selinger 2001-2011
</metadata>
<g transform="translate(0.000000,200.000000) scale(0.100000,-0.100000)"
fill="#000000" stroke="none">
<path d="M1227 1592 c-10 -10 -17 -33 -17 -50 l0 -32 -70 0 c-84 0 -86 -2 -89
-123 -2 -66 2 -94 13 -112 12 -18 16 -58 18 -167 l3 -143 163 -3 c89 -1 162
-6 162 -11 0 -4 18 -16 40 -26 29 -13 39 -23 37 -39 -1 -16 3 -20 19 -19 16 2
26 -8 39 -37 19 -42 39 -50 68 -27 13 10 14 20 6 61 -5 27 -8 50 -7 51 2 0 29
20 61 44 33 24 62 39 66 35 5 -5 41 -54 81 -109 40 -55 75 -102 77 -104 2 -3
16 7 30 22 l27 26 -48 151 -48 151 40 43 c61 66 79 146 36 163 -28 10 -95 -17
-139 -58 -35 -32 -48 -39 -69 -33 -25 6 -37 24 -16 24 7 0 10 42 8 118 l-3
117 -72 3 -73 3 0 29 c0 17 -9 39 -20 50 -18 18 -33 20 -163 20 -127 0 -146
-2 -160 -18z m311 -49 l3 -33 -155 0 c-90 0 -156 4 -156 9 0 24 20 60 36 63 9
1 73 1 143 -2 l126 -5 3 -32z m152 -158 c0 -93 0 -95 -26 -101 -15 -4 -61 4
-120 21 l-94 28 -25 -23 c-32 -30 -31 -32 5 -54 17 -9 28 -22 25 -27 -12 -18
-98 -8 -232 26 -75 19 -137 35 -137 35 -1 0 -1 43 -1 95 l0 95 303 0 302 0 0
-95z m240 -87 c-1 -41 -48 -104 -156 -208 -103 -99 -238 -199 -252 -185 -2 2
17 37 43 77 54 83 242 280 295 308 41 22 70 25 70 8z m-333 -41 l133 -43 -43
-43 c-36 -35 -46 -40 -55 -28 -7 8 -52 43 -102 77 -49 35 -87 67 -84 72 7 12
6 12 151 -35z m-372 -34 c104 -26 105 -27 105 -56 0 -38 25 -67 58 -67 36 0
62 27 62 65 0 53 32 53 107 -2 35 -26 63 -48 63 -50 0 -2 -19 -30 -42 -61 -23
-31 -43 -58 -43 -60 -1 -1 -24 2 -51 7 -30 6 -53 6 -58 0 -6 -5 -79 -9 -163
-9 l-153 0 0 114 c0 63 -3 121 -6 130 -8 21 -1 21 121 -11z m193 -60 c-2 -22
-8 -28 -28 -28 -20 0 -26 6 -28 28 -3 24 0 27 28 27 28 0 31 -3 28 -27z m461
-194 c23 -73 38 -136 34 -140 -4 -4 -42 38 -84 95 l-77 104 36 36 c20 20 39
36 42 36 4 0 25 -59 49 -131z m-365 -8 c3 -4 1 -13 -3 -20 -7 -10 -15 -10 -40
3 -17 9 -29 20 -27 25 6 9 64 2 70 -8z m76 -101 c0 -22 -2 -40 -5 -40 -2 0
-12 14 -21 31 -13 26 -14 33 -2 40 23 15 28 10 28 -31z"/>
<path d="M697 628 c-7 -18 -21 -59 -31 -90 -11 -35 -24 -58 -32 -58 -30 0 -12
-18 22 -22 38 -5 54 6 29 20 -29 16 -7 42 36 42 32 0 39 -3 39 -20 0 -11 -4
-20 -10 -20 -5 0 -10 -4 -10 -9 0 -5 20 -11 45 -13 29 -2 45 1 45 8 0 7 -6 14
-12 17 -7 2 -26 43 -43 91 -33 96 -55 111 -78 54z m37 -43 c9 -44 6 -50 -19
-46 -27 4 -26 2 -13 44 14 46 24 47 32 2z"/>
<path d="M880 650 c0 -5 5 -10 10 -10 6 0 10 -33 10 -80 0 -47 -4 -80 -10 -80
-5 0 -10 -4 -10 -10 0 -6 31 -10 74 -10 71 0 74 1 80 25 7 27 1 45 -14 45 -4
0 -11 -11 -14 -25 -5 -20 -13 -25 -36 -25 l-30 0 0 76 c0 67 2 76 20 81 37 10
20 23 -30 23 -27 0 -50 -4 -50 -10z"/>
<path d="M1090 650 c0 -5 7 -10 15 -10 12 0 15 -16 15 -80 0 -64 -3 -80 -15
-80 -8 0 -15 -4 -15 -10 0 -5 25 -10 55 -10 30 0 55 5 55 10 0 6 -9 10 -20 10
-16 0 -20 7 -20 36 0 33 2 35 27 32 15 -2 28 2 30 10 3 8 -6 12 -26 12 -29 0
-31 3 -31 35 0 29 4 35 21 35 11 0 29 -10 40 -22 l18 -23 1 33 0 32 -75 0
c-43 0 -75 -4 -75 -10z"/>
<path d="M1335 570 c-17 -53 -34 -90 -42 -90 -7 0 -13 -4 -13 -10 0 -5 19 -10
43 -10 37 1 40 2 24 14 -27 21 -11 46 29 46 34 0 62 -29 36 -38 -28 -9 -9 -22
33 -22 25 0 45 5 45 10 0 6 -6 10 -13 10 -7 0 -25 39 -42 90 -25 75 -34 90
-51 90 -17 0 -25 -15 -49 -90z m60 3 c6 -31 5 -33 -19 -33 -29 0 -31 4 -15 49
13 37 24 31 34 -16z"/>
<path d="M1560 650 c0 -5 7 -10 15 -10 23 0 22 -155 -1 -164 -31 -12 -4 -19
63 -17 86 3 103 12 103 56 0 25 -5 35 -21 40 -19 6 -19 8 -5 24 22 24 20 58
-3 71 -25 13 -151 13 -151 0z m127 -26 c8 -22 -9 -48 -36 -52 -18 -3 -21 1
-21 32 0 32 3 36 25 36 15 0 28 -7 32 -16z m8 -93 c8 -27 -3 -48 -30 -54 -31
-5 -35 -1 -35 40 0 30 3 33 29 33 20 0 32 -6 36 -19z"/>
<path d="M1800 651 c0 -5 7 -11 15 -15 22 -8 22 -156 0 -156 -8 0 -15 -6 -15
-12 0 -10 21 -12 80 -10 l80 4 0 29 c0 33 -16 39 -25 9 -4 -14 -15 -20 -36
-20 -27 0 -29 3 -29 35 0 32 2 35 30 35 17 0 30 5 30 10 0 6 -13 10 -30 10
-28 0 -30 3 -30 35 0 31 3 35 26 35 17 0 28 -6 31 -20 8 -30 23 -24 23 10 l0
30 -75 0 c-41 0 -75 -4 -75 -9z"/>
<path d="M2017 653 c-4 -3 -7 -19 -7 -35 0 -35 25 -38 34 -3 4 16 13 25 26 25
18 0 20 -7 20 -80 0 -73 -2 -80 -20 -80 -11 0 -20 -6 -20 -12 0 -9 17 -12 60
-10 33 2 60 8 60 13 0 5 -9 9 -20 9 -18 0 -20 7 -20 80 0 72 2 80 19 80 12 0
21 -8 23 -22 5 -38 28 -33 28 6 l0 36 -88 0 c-49 0 -92 -3 -95 -7z"/>
<path d="M2307 653 c-2 -4 -16 -45 -31 -90 -15 -45 -34 -84 -42 -87 -27 -10
-6 -22 30 -18 35 4 48 16 24 24 -6 2 -9 12 -5 21 9 23 72 23 81 1 9 -22 8 -24
-9 -24 -8 0 -15 -4 -15 -10 0 -5 20 -10 45 -10 40 0 61 13 35 22 -5 2 -23 41
-38 88 -23 67 -33 86 -49 88 -12 2 -23 0 -26 -5z m27 -57 c3 -13 9 -31 12 -40
5 -12 0 -16 -24 -16 l-29 0 10 40 c13 46 22 51 31 16z"/>
</g>
</svg>
